HIERARCHY
ROOT SpineBase
{
  OFFSET 0.000000 0.000000 0.000000
  CHANNELS 6 Xposition Yposition Zposition Zrotation Xrotation Yrotation
  JOINT SpineMid
  {
    OFFSET 0.000000 31.216847 -0.000000
    CHANNELS 3 Zrotation Xrotation Yrotation
    JOINT SpineShoulder
    {
      OFFSET -0.093752 23.154198 -0.801369
      CHANNELS 3 Zrotation Xrotation Yrotation
      JOINT Neck
      {
        OFFSET -0.071693 7.651510 -0.602158
        CHANNELS 3 Zrotation Xrotation Yrotation
        JOINT Head
        {
          OFFSET 2.269600 14.703557 -2.333336
          CHANNELS 3 Zrotation Xrotation Yrotation
          End Site
          {
            OFFSET 0 0 0
          }
        }
      }
      JOINT ShoulderLeft
      {
        OFFSET -18.347984 -2.600814 -1.516721
        CHANNELS 3 Zrotation Xrotation Yrotation
        JOINT ElbowLeft
        {
          OFFSET -5.458400 -25.201541 1.317577
          CHANNELS 3 Zrotation Xrotation Yrotation
          JOINT WristLeft
          {
            OFFSET 1.151694 -21.760053 -7.547319
            CHANNELS 3 Zrotation Xrotation Yrotation
            JOINT HandLeft
            {
              OFFSET 1.738056 -5.651337 -2.460705
              CHANNELS 3 Zrotation Xrotation Yrotation
              JOINT HandTipLeft
              {
                OFFSET 0.365665 -6.876985 -1.006033
                CHANNELS 3 Zrotation Xrotation Yrotation
                End Site
                {
                  OFFSET 0 0 0
                }
              }
              JOINT ThumbLeft
              {
                OFFSET -3.537632 -0.184910 -1.326370
                CHANNELS 3 Zrotation Xrotation Yrotation
                End Site
                {
                  OFFSET 0 0 0
                }
              }
            }
          }
        }
      }
      JOINT ShoulderRight
      {
        OFFSET 19.043520 -3.997547 -2.416367
        CHANNELS 3 Zrotation Xrotation Yrotation
        JOINT ElbowRight
        {
          OFFSET 2.841606 -24.854007 2.065242
          CHANNELS 3 Zrotation Xrotation Yrotation
          JOINT WristRight
          {
            OFFSET 0.318665 -19.222696 -8.369463
            CHANNELS 3 Zrotation Xrotation Yrotation
            JOINT HandRight
            {
              OFFSET -3.423694 -8.374932 -1.048264
              CHANNELS 3 Zrotation Xrotation Yrotation
              JOINT HandTipRight
              {
                OFFSET 0.101489 -6.141357 -2.331332
                CHANNELS 3 Zrotation Xrotation Yrotation
                End Site
                {
                  OFFSET 0 0 0
                }
              }
              JOINT ThumbRight
              {
                OFFSET 1.334444 -0.788097 -6.023897
                CHANNELS 3 Zrotation Xrotation Yrotation
                End Site
                {
                  OFFSET 0 0 0
                }
              }
            }
          }
        }
      }
    }
  }
  JOINT HipLeft
  {
    OFFSET -8.549179 0.913936 -3.557750
    CHANNELS 3 Zrotation Xrotation Yrotation
    JOINT KneeLeft
    {
      OFFSET -3.011579 -33.493525 1.120131
      CHANNELS 3 Zrotation Xrotation Yrotation
      JOINT AnkleLeft
      {
        OFFSET 2.254346 -33.899938 13.491175
        CHANNELS 3 Zrotation Xrotation Yrotation
        JOINT FootLeft
        {
          OFFSET 0.335846 -5.575165 -5.261790
          CHANNELS 3 Zrotation Xrotation Yrotation
          End Site
          {
            OFFSET 0 0 0
          }
        }
      }
    }
  }
  JOINT HipRight
  {
    OFFSET 7.650721 0.916039 -3.548811
    CHANNELS 3 Zrotation Xrotation Yrotation
    JOINT KneeRight
    {
      OFFSET -0.141849 -33.588292 0.164963
      CHANNELS 3 Zrotation Xrotation Yrotation
      JOINT AnkleRight
      {
        OFFSET -1.568925 -33.715573 5.663932
        CHANNELS 3 Zrotation Xrotation Yrotation
        JOINT FootRight
        {
          OFFSET -1.495585 -6.155133 -5.241448
          CHANNELS 3 Zrotation Xrotation Yrotation
          End Site
          {
            OFFSET 0 0 0
          }
        }
      }
    }
  }
}
MOTION
Frames: 12
Frame Time: 0.033333
39.624191 73.932200 316.047263 0.000000 -0.000000 -0.031614 -0.000000 0.000000 0.031614 -0.000000 0.000000 0.000000 -0.000000 0.000000 0.000000 0.000000 0.000000 0.000000 -0.000000 0.000000 0.000000 -0.000000 0.000000 0.000000 -0.000000 0.000000 0.000000 -0.000000 0.000000 0.000000 0.000000 0.000000 0.000000 0.000000 0.000000 0.000000 -0.000000 0.000000 0.000000 -0.000000 0.000000 0.000000 -0.000000 0.000000 0.000000 -0.000000 0.000000 0.000000 0.000000 0.000000 0.000000 0.000000 0.000000 0.000000 -0.000000 0.000000 0.031614 -0.000000 0.000000 0.000000 -0.000000 0.000000 0.000000 0.000000 0.000000 0.000000 -0.000000 0.000000 0.031614 -0.000000 0.000000 0.000000 -0.000000 0.000000 0.000000 0.000000 0.000000 0.000000
39.892459 73.959370 315.731581 -0.003062 0.045745 0.049433 0.003023 -0.045747 -0.049430 -0.000000 0.000000 0.000000 -0.000000 0.000000 0.000000 0.000000 0.000000 0.000000 -0.000000 0.000000 0.000000 -0.000000 0.000000 0.000000 -0.000000 0.000000 0.000000 -0.462146 -1.106154 0.004335 0.000000 0.000000 0.000000 0.000000 0.000000 0.000000 -0.000000 0.000000 0.000000 0.037464 -1.560806 -0.041926 -0.038621 1.560778 0.042962 -1.416810 0.020985 0.538540 0.000000 0.000000 0.000000 0.000000 0.000000 0.000000 0.003023 -0.045747 -0.049430 0.330462 0.897765 0.189181 -0.333465 -0.896654 -0.194380 0.000000 0.000000 0.000000 -0.140345 -0.865032 -0.047810 0.142699 0.819402 -0.003780 -1.229130 0.221735 0.990974 0.000000 0.000000 0.000000
40.073039 73.987354 315.475522 0.023273 0.078885 0.041654 -0.023330 -0.078869 -0.041686 -0.000000 0.000000 0.000000 -0.000000 0.000000 0.000000 0.000000 0.000000 0.000000 -0.000000 0.000000 0.000000 -0.471465 0.688706 0.202432 -0.145685 -1.302466 -0.129379 -0.208935 -1.366572 -0.072202 0.000000 0.000000 0.000000 0.000000 0.000000 0.000000 -0.000000 0.000000 0.000000 -0.080927 -3.007045 -0.016944 0.080148 3.007066 0.012716 -2.736027 0.025057 1.040134 0.000000 0.000000 0.000000 0.000000 0.000000 0.000000 -0.023330 -0.078869 -0.041686 0.597604 1.764426 0.347983 0.056594 -1.768856 -0.973635 0.000000 0.000000 0.000000 -0.215304 -1.467027 -0.039351 0.191076 1.388282 -0.007240 -2.249280 0.337622 1.826775 0.000000 0.000000 0.000000
40.165931 74.016154 315.279085 0.079017 0.099419 -0.055088 -0.078921 -0.099495 0.054951 -0.000000 0.000000 0.000000 0.104014 0.913398 -0.125492 0.000000 0.000000 0.000000 -0.000000 0.000000 0.000000 -0.444519 0.861187 0.202614 -0.672403 -2.187973 -0.151082 0.028856 -1.309390 -0.069779 0.000000 0.000000 0.000000 0.000000 0.000000 0.000000 -0.000000 0.000000 0.000000 -0.360463 -4.303445 0.073229 -0.682053 4.586884 -0.004014 -2.900343 -0.266557 1.468049 0.000000 0.000000 0.000000 0.000000 0.000000 0.000000 -0.078921 -0.099495 0.054951 0.801937 2.600733 0.478020 0.247838 -2.748100 -1.486438 0.000000 0.000000 0.000000 -0.222954 -1.808956 0.059055 0.145859 1.709306 -0.008679 -3.074195 0.360066 2.517097 0.000000 0.000000 0.000000
40.171135 74.045769 315.142271 0.164185 0.107341 -0.241063 -0.163733 -0.108030 0.240755 -0.000000 0.000000 0.000000 -0.014674 1.086980 -0.170230 0.000000 0.000000 0.000000 -0.000000 0.000000 0.000000 -0.241710 0.919173 0.134066 -1.505212 -3.243604 -0.152790 0.495341 -0.759146 -0.041676 0.000000 0.000000 0.000000 0.000000 0.000000 0.000000 -0.000000 0.000000 0.000000 -0.801331 -5.419307 0.225747 -0.376945 6.255739 -0.370540 -3.837455 -0.851342 2.040588 0.000000 0.000000 0.000000 0.000000 0.000000 0.000000 0.814193 -0.403009 0.304716 -0.028998 3.706671 0.518598 0.551227 -3.793036 -2.014075 0.000000 0.000000 0.000000 -0.163549 -1.892603 0.248259 0.007551 1.784557 -0.007618 -3.714908 0.297712 3.070154 0.000000 0.000000 0.000000
40.088652 74.076200 315.065079 0.278794 0.102645 -0.516672 -0.277858 -0.105154 0.516167 -0.000000 0.000000 0.000000 -0.209989 1.195091 -0.215907 0.000000 0.000000 0.000000 -0.000000 0.000000 0.000000 0.137109 0.861856 -0.002962 -2.644321 -4.478101 -0.140122 1.190878 0.287390 0.004362 0.000000 0.000000 0.000000 0.000000 0.000000 0.000000 -0.000000 0.000000 0.000000 -1.398294 -6.330447 0.437071 0.207638 8.019693 -0.970020 -4.746769 -1.762566 2.655157 0.000000 0.000000 0.000000 0.000000 0.000000 0.000000 1.124873 -0.876834 0.645500 -0.362450 4.970878 0.535033 0.970951 -4.907439 -2.555366 0.000000 0.000000 0.000000 -0.039519 -1.718413 0.527881 -0.223556 1.615373 -0.004769 -4.179602 0.155900 3.492452 0.000000 0.000000 0.000000
39.905235 74.100414 315.076070 0.467544 0.103995 -0.928909 -0.465797 -0.111557 0.928031 -0.000000 0.000000 0.000000 -0.616806 1.104942 -0.262680 0.000000 0.000000 0.000000 -0.000000 0.000000 0.000000 0.951982 0.616106 -0.302009 -4.923135 -6.258098 0.059305 2.200792 2.823500 0.042885 0.000000 0.000000 0.000000 0.000000 0.000000 0.000000 1.127873 0.391516 0.134520 -4.434236 -8.225366 0.941874 3.227223 12.639798 -3.457236 -6.836684 -6.876411 3.995527 0.000000 0.000000 0.000000 0.000000 0.000000 0.000000 1.517628 -1.778554 1.179205 -1.092023 6.734017 0.426681 2.436292 -6.369163 -3.640255 0.000000 0.000000 0.000000 0.103532 -1.397459 0.943691 -0.548215 1.295038 -0.001966 -4.827012 -0.105003 4.093510 0.000000 0.000000 0.000000
39.610862 74.129258 315.142284 0.669022 0.060677 -1.420051 -0.667313 -0.077233 1.419247 0.824121 0.133751 0.065151 -1.884344 0.964865 -0.397081 0.000000 0.000000 0.000000 -0.824275 -0.132800 -0.067068 1.815076 0.255674 -0.619113 -6.829733 -8.041600 0.068179 3.247284 3.774850 0.072798 0.000000 0.000000 0.000000 0.000000 0.000000 0.000000 0.785352 0.594388 0.143270 -5.937497 -9.202252 1.170276 5.077347 15.742155 -5.251174 -8.210976 -9.974352 4.951339 0.000000 0.000000 0.000000 0.000000 0.000000 0.000000 1.983133 -2.587514 1.799515 -1.855112 8.300389 0.337691 3.306366 -7.822466 -4.233734 0.000000 0.000000 0.000000 0.352804 -0.615350 1.432735 -1.006392 0.563357 -0.002374 -4.975249 -4.191219 5.179305 0.000000 0.000000 0.000000
39.249446 74.162714 315.241375 0.868167 0.004697 -1.977878 0.095447 0.031525 2.011126 0.036283 0.041144 0.045594 -2.472890 1.029238 -0.471241 0.000000 0.000000 0.000000 -1.001006 -0.072687 -0.080098 2.658764 -0.222422 -0.928414 -9.001702 -10.120659 0.027770 5.603576 6.643054 -0.166914 0.000000 0.000000 0.000000 0.000000 0.000000 0.000000 1.072662 0.910962 0.189380 -7.025351 -9.474889 1.289685 6.063253 18.162653 -6.670166 -8.576574 -11.399682 5.771544 0.000000 0.000000 0.000000 0.000000 0.000000 0.000000 2.430647 -3.382866 2.494357 -2.443889 9.830540 0.298653 3.662825 -8.923283 -4.539593 0.000000 0.000000 0.000000 0.639530 0.479012 1.977272 -1.572778 -1.644585 0.034250 -4.390798 1.358967 3.749769 0.000000 0.000000 0.000000
38.842267 74.204611 315.361901 1.038461 -0.054609 -2.560325 0.071599 0.032767 2.598862 0.017543 0.038301 0.050220 -2.933195 1.047185 -0.521933 0.000000 0.000000 0.000000 -2.019306 0.418014 -0.225028 4.201404 -1.093390 -0.997494 -10.495793 -11.381065 0.034614 7.481723 8.332592 -0.515188 0.000000 0.000000 0.000000 0.000000 0.000000 0.000000 1.342944 1.137100 0.223177 -7.576094 -8.994575 1.303840 6.241442 20.199477 -7.812152 -8.536243 -13.999102 6.546143 0.000000 0.000000 0.000000 0.000000 0.000000 0.000000 2.913954 -4.088953 3.213018 -2.955383 11.306415 0.293661 3.859269 -10.112149 -4.802426 0.000000 0.000000 0.000000 0.977609 1.769647 2.532819 -1.836201 -3.370892 0.099929 -3.590701 2.066162 2.716540 0.000000 0.000000 0.000000
38.445228 74.251313 315.487965 1.168017 -0.115822 -3.076817 0.039283 0.039418 3.119100 -0.005366 0.036102 0.052431 -3.160344 1.074386 -0.543477 0.000000 0.000000 0.000000 -2.259462 0.600189 -0.262871 4.776992 -1.601528 -1.097183 -11.010520 -11.859125 -0.009828 8.380546 10.504343 -0.579662 0.000000 0.000000 0.000000 0.000000 0.000000 0.000000 1.540220 1.263681 0.241982 -7.311531 -7.511353 1.154999 4.979067 18.149224 -7.023902 -7.462087 -11.758518 6.384380 0.000000 0.000000 0.000000 0.000000 0.000000 0.000000 3.245587 -4.504133 3.821872 -3.191118 12.269085 0.323701 3.667568 -10.821326 -4.863619 0.000000 0.000000 0.000000 1.327934 3.050446 3.011760 -1.838930 -4.573808 0.202579 -2.686548 6.107960 0.441125 0.000000 0.000000 0.000000
38.094813 74.292531 315.593068 1.226921 -0.152831 -3.518086 0.012691 0.043172 3.561789 -0.021374 0.038727 0.052457 -3.129464 1.085537 -0.533646 0.000000 0.000000 0.000000 -2.287219 0.800729 -0.299001 4.962036 -1.999046 -1.107803 -10.636872 -11.835286 -0.169282 8.234839 10.856721 -0.372955 0.000000 0.000000 0.000000 0.000000 0.000000 0.000000 1.695513 1.154139 0.239716 -7.436771 -6.091805 1.223104 6.121355 17.254871 -7.537229 -8.897526 -11.689608 6.620342 0.000000 0.000000 0.000000 0.000000 0.000000 0.000000 3.678380 -4.942255 4.362770 -3.497564 13.154368 0.337516 3.284957 -11.168373 -4.701523 0.000000 0.000000 0.000000 1.707637 4.112618 3.412288 -1.689532 -5.071420 0.316838 -1.462051 12.057134 -2.708390 0.000000 0.000000 0.000000
